<svg width="250" height="250" viewBox="0 0 250 250" fill="none" xmlns="http://www.w3.org/2000/svg">
<rect x="107.509" y="1" width="34.9823" height="34.9823" fill="#FF9E0C" stroke="white" stroke-width="2"/>
<rect x="143.012" y="1" width="34.9823" height="34.9823" stroke="white" stroke-width="2"/>
<rect x="1" y="1" width="34.9823" height="34.9823" stroke="white" stroke-width="2"/>
<rect x="72.0059" y="1" width="34.9823" height="34.9823" stroke="white" stroke-width="2"/>
<rect x="36.5029" y="1" width="34.9823" height="34.9823" stroke="white" stroke-width="2"/>
<rect x="107.509" y="143.012" width="34.9823" height="34.9823" fill="#FF9E0C" stroke="white" stroke-width="2"/>
<rect x="143.012" y="143.012" width="34.9823" height="34.9823" stroke="white" stroke-width="2"/>
<rect x="1" y="143.012" width="34.9823" height="34.9823" stroke="white" stroke-width="2"/>
<rect x="72.0059" y="143.012" width="34.9823" height="34.9823" stroke="white" stroke-width="2"/>
<rect x="36.5029" y="143.012" width="34.9823" height="34.9823" stroke="white" stroke-width="2"/>
<rect x="107.509" y="214.018" width="34.9823" height="34.9823" fill="#FF9E0C" stroke="white" stroke-width="2"/>
<rect x="143.012" y="214.018" width="34.9823" height="34.9823" stroke="white" stroke-width="2"/>
<rect x="1" y="214.018" width="34.9823" height="34.9823" stroke="white" stroke-width="2"/>
<rect x="72.0059" y="214.018" width="34.9823" height="34.9823" stroke="white" stroke-width="2"/>
<rect x="36.5029" y="214.018" width="34.9823" height="34.9823" stroke="white" stroke-width="2"/>
<rect x="107.509" y="178.515" width="34.9823" height="34.9823" fill="#FF9E0C" stroke="white" stroke-width="2"/>
<rect x="143.012" y="178.515" width="34.9823" height="34.9823" stroke="white" stroke-width="2"/>
<rect x="1" y="178.515" width="34.9823" height="34.9823" stroke="white" stroke-width="2"/>
<rect x="72.0059" y="178.515" width="34.9823" height="34.9823" stroke="white" stroke-width="2"/>
<rect x="36.5029" y="178.515" width="34.9823" height="34.9823" stroke="white" stroke-width="2"/>
<rect x="107.509" y="107.509" width="34.9823" height="34.9823" stroke="white" stroke-width="2"/>
<rect x="143.012" y="107.509" width="34.9823" height="34.9823" fill="#FF9E0C" stroke="white" stroke-width="2"/>
<rect x="1" y="107.509" width="34.9823" height="34.9823" fill="#FF9E0C" stroke="white" stroke-width="2"/>
<rect x="72.0059" y="107.509" width="34.9823" height="34.9823" fill="#FF9E0C" stroke="white" stroke-width="2"/>
<rect x="36.5029" y="107.509" width="34.9823" height="34.9823" fill="#FF9E0C" stroke="white" stroke-width="2"/>
<rect x="107.509" y="72.0059" width="34.9823" height="34.9823" fill="#FF9E0C" stroke="white" stroke-width="2"/>
<rect x="143.012" y="72.0059" width="34.9823" height="34.9823" stroke="white" stroke-width="2"/>
<rect x="1" y="72.0059" width="34.9823" height="34.9823" stroke="white" stroke-width="2"/>
<rect x="72.0059" y="72.0059" width="34.9823" height="34.9823" stroke="white" stroke-width="2"/>
<rect x="36.5029" y="72.0059" width="34.9823" height="34.9823" stroke="white" stroke-width="2"/>
<rect x="107.509" y="36.5029" width="34.9823" height="34.9823" fill="#FF9E0C" stroke="white" stroke-width="2"/>
<rect x="143.012" y="36.5029" width="34.9823" height="34.9823" stroke="white" stroke-width="2"/>
<rect x="214.018" y="1" width="34.9823" height="34.9823" stroke="white" stroke-width="2"/>
<rect x="214.018" y="143.012" width="34.9823" height="34.9823" stroke="white" stroke-width="2"/>
<rect x="214.018" y="214.018" width="34.9823" height="34.9823" stroke="white" stroke-width="2"/>
<rect x="214.018" y="178.515" width="34.9823" height="34.9823" stroke="white" stroke-width="2"/>
<rect x="214.018" y="107.509" width="34.9823" height="34.9823" fill="#FF9E0C" stroke="white" stroke-width="2"/>
<rect x="214.018" y="72.0059" width="34.9823" height="34.9823" stroke="white" stroke-width="2"/>
<rect x="214.018" y="36.5029" width="34.9823" height="34.9823" stroke="white" stroke-width="2"/>
<rect x="178.515" y="1" width="34.9823" height="34.9823" stroke="white" stroke-width="2"/>
<rect x="178.515" y="143.012" width="34.9823" height="34.9823" stroke="white" stroke-width="2"/>
<rect x="178.515" y="214.018" width="34.9823" height="34.9823" stroke="white" stroke-width="2"/>
<rect x="178.515" y="178.515" width="34.9823" height="34.9823" stroke="white" stroke-width="2"/>
<rect x="178.515" y="107.509" width="34.9823" height="34.9823" fill="#FF9E0C" stroke="white" stroke-width="2"/>
<rect x="178.515" y="72.0059" width="34.9823" height="34.9823" stroke="white" stroke-width="2"/>
<rect x="178.515" y="36.5029" width="34.9823" height="34.9823" stroke="white" stroke-width="2"/>
<rect x="1" y="36.5029" width="34.9823" height="34.9823" stroke="white" stroke-width="2"/>
<rect x="72.0059" y="36.5029" width="34.9823" height="34.9823" stroke="white" stroke-width="2"/>
<rect x="36.5029" y="36.5029" width="34.9823" height="34.9823" stroke="white" stroke-width="2"/>
<circle cx="125" cy="125" r="11.0947" fill="#A562BD"/>
</svg>
