<svg width="250" height="250" viewBox="0 0 250 250" fill="none" xmlns="http://www.w3.org/2000/svg">
<rect x="125.352" y="32.0881" width="30.3834" height="30.3834" stroke="white" stroke-width="2"/>
<rect x="156.44" y="32.0881" width="30.3834" height="30.3834" stroke="white" stroke-width="2"/>
<rect x="32.0881" y="32.0881" width="30.3834" height="30.3834" stroke="white" stroke-width="2"/>
<rect x="94.2642" y="32.0881" width="30.3834" height="30.3834" stroke="white" stroke-width="2"/>
<rect x="63.1763" y="32.0881" width="30.3834" height="30.3834" stroke="white" stroke-width="2"/>
<rect x="125.352" y="156.44" width="30.3834" height="30.3834" fill="#FF9E0C" stroke="white" stroke-width="2"/>
<rect x="156.44" y="156.44" width="30.3834" height="30.3834" fill="#FF9E0C" stroke="white" stroke-width="2"/>
<rect x="32.0881" y="156.44" width="30.3834" height="30.3834" stroke="white" stroke-width="2"/>
<rect x="94.2642" y="156.44" width="30.3834" height="30.3834" fill="#FF9E0C" stroke="white" stroke-width="2"/>
<rect x="63.1763" y="156.44" width="30.3834" height="30.3834" fill="#FF9E0C" stroke="white" stroke-width="2"/>
<rect x="125.352" y="218.617" width="30.3834" height="30.3834" stroke="white" stroke-width="2"/>
<rect x="156.44" y="218.617" width="30.3834" height="30.3834" stroke="white" stroke-width="2"/>
<rect x="32.0881" y="218.617" width="30.3834" height="30.3834" stroke="white" stroke-width="2"/>
<rect x="94.2642" y="218.617" width="30.3834" height="30.3834" stroke="white" stroke-width="2"/>
<rect x="63.1763" y="218.617" width="30.3834" height="30.3834" stroke="white" stroke-width="2"/>
<rect x="125.352" y="187.529" width="30.3834" height="30.3834" fill="#FF9E0C" stroke="white" stroke-width="2"/>
<rect x="156.44" y="187.529" width="30.3834" height="30.3834" fill="#FF9E0C" stroke="white" stroke-width="2"/>
<rect x="32.0881" y="187.529" width="30.3834" height="30.3834" stroke="white" stroke-width="2"/>
<rect x="94.2642" y="187.529" width="30.3834" height="30.3834" fill="#FF9E0C" stroke="white" stroke-width="2"/>
<rect x="63.1763" y="187.529" width="30.3834" height="30.3834" fill="#FF9E0C" stroke="white" stroke-width="2"/>
<rect x="125.352" y="125.352" width="30.3834" height="30.3834" stroke="white" stroke-width="2"/>
<rect x="156.44" y="125.352" width="30.3834" height="30.3834" fill="#FF9E0C" stroke="white" stroke-width="2"/>
<rect x="32.0881" y="125.352" width="30.3834" height="30.3834" stroke="white" stroke-width="2"/>
<rect x="94.2642" y="125.352" width="30.3834" height="30.3834" fill="#FF9E0C" stroke="white" stroke-width="2"/>
<rect x="63.1763" y="125.352" width="30.3834" height="30.3834" fill="#FF9E0C" stroke="white" stroke-width="2"/>
<rect x="125.352" y="94.2643" width="30.3834" height="30.3834" fill="#FF9E0C" stroke="white" stroke-width="2"/>
<rect x="156.44" y="94.2643" width="30.3834" height="30.3834" fill="#FF9E0C" stroke="white" stroke-width="2"/>
<rect x="32.0881" y="94.2643" width="30.3834" height="30.3834" stroke="white" stroke-width="2"/>
<rect x="94.2642" y="94.2643" width="30.3834" height="30.3834" fill="#FF9E0C" stroke="white" stroke-width="2"/>
<rect x="63.1763" y="94.2643" width="30.3834" height="30.3834" fill="#FF9E0C" stroke="white" stroke-width="2"/>
<rect x="125.352" y="63.1761" width="30.3834" height="30.3834" fill="#FF9E0C" stroke="white" stroke-width="2"/>
<rect x="156.44" y="63.1761" width="30.3834" height="30.3834" fill="#FF9E0C" stroke="white" stroke-width="2"/>
<rect x="218.617" y="32.0881" width="30.3834" height="30.3834" stroke="white" stroke-width="2"/>
<rect x="218.617" y="156.44" width="30.3834" height="30.3834" stroke="white" stroke-width="2"/>
<rect x="218.617" y="218.617" width="30.3834" height="30.3834" stroke="white" stroke-width="2"/>
<rect x="218.617" y="187.529" width="30.3834" height="30.3834" stroke="white" stroke-width="2"/>
<rect x="218.617" y="125.352" width="30.3834" height="30.3834" stroke="white" stroke-width="2"/>
<rect x="218.617" y="94.2643" width="30.3834" height="30.3834" stroke="white" stroke-width="2"/>
<rect x="218.617" y="63.1761" width="30.3834" height="30.3834" stroke="white" stroke-width="2"/>
<rect x="187.529" y="32.0881" width="30.3834" height="30.3834" stroke="white" stroke-width="2"/>
<rect x="187.529" y="156.44" width="30.3834" height="30.3834" fill="#FF9E0C" stroke="white" stroke-width="2"/>
<rect x="187.529" y="218.617" width="30.3834" height="30.3834" stroke="white" stroke-width="2"/>
<rect x="187.529" y="187.529" width="30.3834" height="30.3834" fill="#FF9E0C" stroke="white" stroke-width="2"/>
<rect x="187.529" y="125.352" width="30.3834" height="30.3834" fill="#FF9E0C" stroke="white" stroke-width="2"/>
<rect x="187.529" y="94.2643" width="30.3834" height="30.3834" fill="#FF9E0C" stroke="white" stroke-width="2"/>
<rect x="187.529" y="63.1761" width="30.3834" height="30.3834" fill="#FF9E0C" stroke="white" stroke-width="2"/>
<rect x="32.0881" y="63.1761" width="30.3834" height="30.3834" stroke="white" stroke-width="2"/>
<rect x="1" y="32.0881" width="30.3834" height="30.3834" stroke="white" stroke-width="2"/>
<rect x="125.352" y="1" width="30.3834" height="30.3834" stroke="white" stroke-width="2"/>
<rect x="156.44" y="1" width="30.3834" height="30.3834" stroke="white" stroke-width="2"/>
<rect x="32.0881" y="1" width="30.3834" height="30.3834" stroke="white" stroke-width="2"/>
<rect x="94.2642" y="1" width="30.3834" height="30.3834" stroke="white" stroke-width="2"/>
<rect x="63.1763" y="1" width="30.3834" height="30.3834" stroke="white" stroke-width="2"/>
<rect x="218.617" y="1" width="30.3834" height="30.3834" stroke="white" stroke-width="2"/>
<rect x="187.529" y="1" width="30.3834" height="30.3834" stroke="white" stroke-width="2"/>
<rect x="1" y="1" width="30.3834" height="30.3834" stroke="white" stroke-width="2"/>
<rect x="1" y="156.44" width="30.3834" height="30.3834" stroke="white" stroke-width="2"/>
<rect x="1" y="218.617" width="30.3834" height="30.3834" stroke="white" stroke-width="2"/>
<rect x="1" y="187.529" width="30.3834" height="30.3834" stroke="white" stroke-width="2"/>
<rect x="1" y="125.352" width="30.3834" height="30.3834" stroke="white" stroke-width="2"/>
<rect x="1" y="94.2643" width="30.3834" height="30.3834" stroke="white" stroke-width="2"/>
<rect x="1" y="63.1761" width="30.3834" height="30.3834" stroke="white" stroke-width="2"/>
<rect x="94.2642" y="63.1761" width="30.3834" height="30.3834" fill="#FF9E0C" stroke="white" stroke-width="2"/>
<rect x="63.1763" y="63.1761" width="30.3834" height="30.3834" fill="#FF9E0C" stroke="white" stroke-width="2"/>
<circle cx="140.544" cy="140.544" r="9.71503" fill="#A562BD"/>
</svg>
